<?xml version="1.0" encoding="UTF-8" standalone="no"?>
<!-- Generator: Adobe Illustrator 16.0.0, SVG Export Plug-In . SVG Version: 6.00 Build 0)  -->

<svg
   xmlns:dc="http://purl.org/dc/elements/1.1/"
   xmlns:cc="http://creativecommons.org/ns#"
   xmlns:rdf="http://www.w3.org/1999/02/22-rdf-syntax-ns#"
   xmlns:svg="http://www.w3.org/2000/svg"
   xmlns="http://www.w3.org/2000/svg"
   xmlns:sodipodi="http://sodipodi.sourceforge.net/DTD/sodipodi-0.dtd"
   xmlns:inkscape="http://www.inkscape.org/namespaces/inkscape"
   version="1.1"
   id="Capa_1"
   x="0px"
   y="0px"
   width="615.52px"
   height="615.52px"
   viewBox="0 0 615.52 615.52"
   style="enable-background:new 0 0 615.52 615.52;"
   xml:space="preserve"
   sodipodi:docname="searchicon.svg"
   inkscape:version="0.92.2 (5c3e80d, 2017-08-06)"><metadata
     id="metadata46"><rdf:RDF><cc:Work
         rdf:about=""><dc:format>image/svg+xml</dc:format><dc:type
           rdf:resource="http://purl.org/dc/dcmitype/StillImage" /></cc:Work></rdf:RDF></metadata><defs
     id="defs44" /><sodipodi:namedview
     pagecolor="#ffffff"
     bordercolor="#666666"
     borderopacity="1"
     objecttolerance="10"
     gridtolerance="10"
     guidetolerance="10"
     inkscape:pageopacity="0"
     inkscape:pageshadow="2"
     inkscape:window-width="1800"
     inkscape:window-height="873"
     id="namedview42"
     showgrid="false"
     inkscape:zoom="0.38341564"
     inkscape:cx="307.76001"
     inkscape:cy="307.76001"
     inkscape:window-x="0"
     inkscape:window-y="0"
     inkscape:window-maximized="0"
     inkscape:current-layer="Capa_1" /><g
     id="g9"
     style="fill-opacity:1;fill:#808080"><g
       id="g7"
       style="fill-opacity:1;fill:#808080"><g
         id="Search__x28_and_thou_shall_find_x29_"
         style="fill-opacity:1;fill:#808080"><g
           id="g4"
           style="fill-opacity:1;fill:#808080"><path
             d="M602.531,549.736l-184.31-185.368c26.679-37.72,42.528-83.729,42.528-133.548C460.75,103.35,357.997,0,231.258,0      C104.518,0,1.765,103.35,1.765,230.82c0,127.47,102.753,230.82,229.493,230.82c49.53,0,95.271-15.944,132.78-42.777      l184.31,185.366c7.482,7.521,17.292,11.291,27.102,11.291c9.812,0,19.62-3.77,27.083-11.291      C617.496,589.188,617.496,564.777,602.531,549.736z M355.9,319.763l-15.042,21.273L319.7,356.174      c-26.083,18.658-56.667,28.526-88.442,28.526c-84.365,0-152.995-69.035-152.995-153.88c0-84.846,68.63-153.88,152.995-153.88      s152.996,69.034,152.996,153.88C384.271,262.769,374.462,293.526,355.9,319.763z"
             id="path2"
             style="fill-opacity:1;fill:#808080" /></g></g></g></g><g
     id="g11" /><g
     id="g13" /><g
     id="g15" /><g
     id="g17" /><g
     id="g19" /><g
     id="g21" /><g
     id="g23" /><g
     id="g25" /><g
     id="g27" /><g
     id="g29" /><g
     id="g31" /><g
     id="g33" /><g
     id="g35" /><g
     id="g37" /><g
     id="g39" /></svg>